<?xml version="1.0" standalone="no"?>
<!DOCTYPE svg PUBLIC "-//W3C//DTD SVG 20010904//EN"
 "http://www.w3.org/TR/2001/REC-SVG-20010904/DTD/svg10.dtd">
<svg version="1.0" xmlns="http://www.w3.org/2000/svg"
 width="100.000000pt" height="100.000000pt" viewBox="0 0 100.000000 100.000000"
 preserveAspectRatio="xMidYMid meet">

<g transform="translate(0.000000,100.000000) scale(0.100000,-0.100000)"
fill="#000000" stroke="none">
<path d="M386 944 c-224 -54 -376 -287 -338 -516 62 -368 512 -515 773 -253
182 182 182 468 2 648 -117 117 -274 160 -437 121z m264 -53 c71 -27 145 -83
188 -143 l34 -48 -199 0 c-109 0 -215 -5 -236 -11 -47 -13 -113 -77 -124 -119
-5 -17 -13 -30 -18 -29 -6 2 -38 48 -72 103 l-61 100 19 27 c19 27 93 85 136
108 86 44 234 50 333 12z m-400 -364 c124 -203 145 -222 252 -222 37 0 68 -2
68 -5 -1 -3 -27 -50 -60 -105 l-58 -100 -40 1 c-50 1 -136 42 -193 93 -92 81
-146 218 -136 341 6 69 44 187 56 173 4 -4 54 -84 111 -176z m313 119 c103
-43 128 -177 48 -257 -65 -65 -157 -65 -222 0 -124 123 13 325 174 257z m337
-18 c21 -61 24 -158 6 -228 -40 -155 -151 -266 -304 -305 -123 -32 -123 -34
-9 165 101 174 101 176 102 242 0 59 -4 71 -32 112 l-33 46 129 0 129 0 12
-32z"/>
</g>
</svg>
