<?xml version="1.0" standalone="no"?>
<!DOCTYPE svg PUBLIC "-//W3C//DTD SVG 20010904//EN"
 "http://www.w3.org/TR/2001/REC-SVG-20010904/DTD/svg10.dtd">
<svg version="1.0" xmlns="http://www.w3.org/2000/svg"
 width="96.000000pt" height="96.000000pt" viewBox="0 0 96.000000 96.000000"
 preserveAspectRatio="xMidYMid meet">

<g transform="translate(0.000000,96.000000) scale(0.100000,-0.100000)"
fill="#000000" stroke="none">
<path d="M253 827 l-73 -73 0 -66 0 -65 -72 -44 -73 -44 -3 -225 c-2 -203 -1
-226 15 -237 13 -10 116 -13 434 -13 366 0 420 2 433 16 14 13 16 49 16 233 0
247 8 224 -92 280 l-58 32 0 120 c0 66 -5 129 -10 140 -10 18 -23 19 -227 19
l-217 0 -73 -73z m497 -152 c0 -167 2 -195 15 -195 12 0 15 13 15 55 l0 54 60
-36 c37 -22 60 -42 58 -51 -3 -16 -380 -191 -415 -191 -37 -1 -418 174 -418
192 0 9 26 32 57 51 l58 35 0 -55 c0 -41 4 -54 15 -54 13 0 15 20 15 120 l0
120 59 0 c78 0 91 13 91 91 l0 59 195 0 195 0 0 -195z m-420 130 l0 -55 -57 0
-57 0 54 55 c30 30 56 55 57 55 2 0 3 -25 3 -55z m-65 -440 c104 -47 200 -85
215 -85 15 0 112 38 216 85 104 47 192 85 196 85 5 0 8 -81 8 -180 l0 -180
-420 0 -420 0 0 180 c0 99 4 180 9 180 4 0 93 -38 196 -85z"/>
<path d="M394 686 c-33 -33 -34 -36 -34 -116 0 -80 1 -83 34 -116 32 -32 38
-34 105 -34 56 0 71 3 71 15 0 12 -14 15 -65 15 -57 0 -69 3 -90 25 -22 21
-25 33 -25 95 0 62 3 74 25 95 18 19 35 25 65 25 65 0 90 -32 90 -115 0 -51
-3 -65 -15 -65 -12 0 -15 13 -15 55 0 42 -5 60 -20 75 -46 46 -100 9 -100 -70
0 -72 20 -89 100 -86 40 2 65 8 71 17 5 8 9 45 9 83 0 64 -2 70 -34 102 -30
30 -40 34 -86 34 -46 0 -56 -4 -86 -34z m111 -116 c0 -52 -1 -55 -25 -55 -22
0 -25 5 -28 44 -4 57 3 73 30 69 21 -3 23 -9 23 -58z"/>
<path d="M90 180 c0 -20 5 -30 15 -30 10 0 15 10 15 30 0 20 -5 30 -15 30 -10
0 -15 -10 -15 -30z"/>
<path d="M166 195 c-6 -17 2 -45 14 -45 12 0 20 28 14 45 -4 8 -10 15 -14 15
-4 0 -10 -7 -14 -15z"/>
<path d="M240 180 c0 -20 5 -30 15 -30 10 0 15 10 15 30 0 20 -5 30 -15 30
-10 0 -15 -10 -15 -30z"/>
<path d="M316 195 c-6 -17 2 -45 14 -45 12 0 20 28 14 45 -4 8 -10 15 -14 15
-4 0 -10 -7 -14 -15z"/>
<path d="M390 180 c0 -20 5 -30 15 -30 10 0 15 10 15 30 0 20 -5 30 -15 30
-10 0 -15 -10 -15 -30z"/>
<path d="M466 195 c-6 -17 2 -45 14 -45 12 0 20 28 14 45 -4 8 -10 15 -14 15
-4 0 -10 -7 -14 -15z"/>
<path d="M540 180 c0 -20 5 -30 15 -30 10 0 15 10 15 30 0 20 -5 30 -15 30
-10 0 -15 -10 -15 -30z"/>
<path d="M616 195 c-6 -17 2 -45 14 -45 12 0 20 28 14 45 -4 8 -10 15 -14 15
-4 0 -10 -7 -14 -15z"/>
<path d="M690 180 c0 -20 5 -30 15 -30 10 0 15 10 15 30 0 20 -5 30 -15 30
-10 0 -15 -10 -15 -30z"/>
<path d="M766 195 c-6 -17 2 -45 14 -45 12 0 20 28 14 45 -4 8 -10 15 -14 15
-4 0 -10 -7 -14 -15z"/>
<path d="M840 180 c0 -20 5 -30 15 -30 10 0 15 10 15 30 0 20 -5 30 -15 30
-10 0 -15 -10 -15 -30z"/>
</g>
</svg>
