<svg xmlns="http://www.w3.org/2000/svg" width="128" height="128" version="1.0" viewBox="0 0 96 96"><path d="M25.3 13.3 18 20.6v13.1l-7.2 4.4-7.3 4.4L3.2 65C3 85.3 3.1 87.6 4.7 88.7 6 89.7 16.3 90 48.1 90c36.6 0 42-.2 43.3-1.6 1.4-1.3 1.6-4.9 1.6-23.3 0-24.7.8-22.4-9.2-28L78 33.9v-12c0-6.6-.5-12.9-1-14C76 6.1 74.7 6 54.3 6H32.6l-7.3 7.3zM75 28.5c0 16.7.2 19.5 1.5 19.5 1.2 0 1.5-1.3 1.5-5.5v-5.4l6 3.6c3.7 2.2 6 4.2 5.8 5.1-.3 1.6-38 19.1-41.5 19.1-3.7.1-41.8-17.4-41.8-19.2 0-.9 2.6-3.2 5.7-5.1l5.8-3.5v5.5c0 4.1.4 5.4 1.5 5.4 1.3 0 1.5-2 1.5-12V24h5.9c7.8 0 9.1-1.3 9.1-9.1V9h39v19.5zm-42-13V21H21.6l5.4-5.5c3-3 5.6-5.5 5.7-5.5.2 0 .3 2.5.3 5.5zm-6.5 44C36.9 64.2 46.5 68 48 68s11.2-3.8 21.6-8.5C80 54.8 88.8 51 89.2 51c.5 0 .8 8.1.8 18v18H6V69c0-9.9.4-18 .9-18 .4 0 9.3 3.8 19.6 8.5z"/><path d="M39.4 27.4C36.1 30.7 36 31 36 39s.1 8.3 3.4 11.6c3.2 3.2 3.8 3.4 10.5 3.4 5.6 0 7.1-.3 7.1-1.5S55.6 51 50.5 51c-5.7 0-6.9-.3-9-2.5-2.2-2.1-2.5-3.3-2.5-9.5s.3-7.4 2.5-9.5C43.3 27.6 45 27 48 27c6.5 0 9 3.2 9 11.5 0 5.1-.3 6.5-1.5 6.5S54 43.7 54 39.5s-.5-6-2-7.5c-4.6-4.6-10-.9-10 7 0 7.2 2 8.9 10 8.6 4-.2 6.5-.8 7.1-1.7.5-.8.9-4.5.9-8.3 0-6.4-.2-7-3.4-10.2-3-3-4-3.4-8.6-3.4s-5.6.4-8.6 3.4zM50.5 39c0 5.2-.1 5.5-2.5 5.5-2.2 0-2.5-.5-2.8-4.4-.4-5.7.3-7.3 3-6.9 2.1.3 2.3.9 2.3 5.8zM9 78c0 2 .5 3 1.5 3s1.5-1 1.5-3-.5-3-1.5-3S9 76 9 78zM16.6 76.5c-.6 1.7.2 4.5 1.4 4.5s2-2.8 1.4-4.5c-.4-.8-1-1.5-1.4-1.5-.4 0-1 .7-1.4 1.5zM24 78c0 2 .5 3 1.5 3s1.5-1 1.5-3-.5-3-1.5-3-1.5 1-1.5 3zM31.6 76.5c-.6 1.7.2 4.5 1.4 4.5s2-2.8 1.4-4.5c-.4-.8-1-1.5-1.4-1.5-.4 0-1 .7-1.4 1.5zM39 78c0 2 .5 3 1.5 3s1.5-1 1.5-3-.5-3-1.5-3-1.5 1-1.5 3zM46.6 76.5c-.6 1.7.2 4.5 1.4 4.5s2-2.8 1.4-4.5c-.4-.8-1-1.5-1.4-1.5-.4 0-1 .7-1.4 1.5zM54 78c0 2 .5 3 1.5 3s1.5-1 1.5-3-.5-3-1.5-3-1.5 1-1.5 3zM61.6 76.5c-.6 1.7.2 4.5 1.4 4.5s2-2.8 1.4-4.5c-.4-.8-1-1.5-1.4-1.5-.4 0-1 .7-1.4 1.5zM69 78c0 2 .5 3 1.5 3s1.5-1 1.5-3-.5-3-1.5-3-1.5 1-1.5 3zM76.6 76.5c-.6 1.7.2 4.5 1.4 4.5s2-2.8 1.4-4.5c-.4-.8-1-1.5-1.4-1.5-.4 0-1 .7-1.4 1.5zM84 78c0 2 .5 3 1.5 3s1.5-1 1.5-3-.5-3-1.5-3-1.5 1-1.5 3z"/></svg>