<?xml version="1.0" standalone="no"?>
<!DOCTYPE svg PUBLIC "-//W3C//DTD SVG 20010904//EN"
 "http://www.w3.org/TR/2001/REC-SVG-20010904/DTD/svg10.dtd">
<svg version="1.0" xmlns="http://www.w3.org/2000/svg"
 width="96.000000pt" height="96.000000pt" viewBox="0 0 96.000000 96.000000"
 preserveAspectRatio="xMidYMid meet">

<g transform="translate(0.000000,96.000000) scale(0.100000,-0.100000)"
fill="#000000" stroke="none">
<path d="M347 853 c-4 -3 -7 -66 -7 -140 0 -123 -1 -133 -19 -133 -10 0 -30
17 -45 40 l-27 41 -92 -3 -92 -3 -3 -257 c-2 -247 -1 -259 18 -278 19 -19 33
-20 260 -20 291 0 280 -5 280 120 l0 80 120 0 c171 0 161 -16 158 258 l-3 217
-156 3 -157 2 -26 40 -26 40 -88 0 c-49 0 -92 -3 -95 -7z m189 -73 l27 -40
149 0 148 0 -2 -177 -3 -178 -117 -3 -117 -3 -3 98 -3 98 -117 3 -118 3 0 119
0 120 65 0 c64 0 65 0 91 -40z m-280 -200 l27 -40 149 0 148 0 -2 -177 -3
-178 -235 0 -235 0 -3 218 -2 217 65 0 c64 0 65 0 91 -40z"/>
</g>
</svg>
