<?xml version="1.0" standalone="no"?>
<!DOCTYPE svg PUBLIC "-//W3C//DTD SVG 20010904//EN"
 "http://www.w3.org/TR/2001/REC-SVG-20010904/DTD/svg10.dtd">
<svg version="1.0" xmlns="http://www.w3.org/2000/svg"
 width="100.000000pt" height="100.000000pt" viewBox="0 0 100.000000 100.000000"
 preserveAspectRatio="xMidYMid meet">

<g transform="translate(0.000000,100.000000) scale(0.100000,-0.100000)"
fill="#000000" stroke="none">
<path d="M386 944 c-224 -54 -376 -287 -338 -516 62 -369 512 -515 775 -251
180 180 180 466 -2 648 -115 115 -272 158 -435 119z m264 -53 c144 -56 245
-185 266 -340 l7 -51 -70 0 -69 0 -13 58 c-7 31 -13 82 -12 112 2 107 -30 133
-113 91 -33 -17 -44 -18 -92 -8 -40 8 -68 8 -108 0 -48 -10 -59 -9 -92 8 -84
42 -121 16 -111 -78 4 -36 1 -65 -9 -88 -8 -19 -14 -48 -14 -65 l0 -30 -70 0
c-81 0 -82 1 -54 105 38 147 148 259 294 300 72 20 188 14 260 -14z m-285
-181 c10 -8 30 -8 74 1 49 10 73 10 121 1 50 -11 63 -10 82 2 13 8 34 16 48
18 24 3 25 1 23 -52 -2 -32 4 -71 13 -95 23 -57 11 -120 -30 -161 -89 -89
-318 -84 -405 10 -32 34 -40 110 -17 155 13 23 15 44 10 76 -9 64 -2 76 36 65
18 -5 38 -14 45 -20z m-140 -240 c3 -6 -4 -10 -17 -10 -13 0 -47 -3 -75 -6
-45 -6 -53 -4 -53 10 0 13 12 16 69 16 39 0 73 -4 76 -10z m695 -6 c0 -14 -8
-16 -52 -10 -29 3 -63 6 -75 6 -13 0 -23 5 -23 10 0 6 32 10 75 10 63 0 75 -3
75 -16z m-656 -59 c18 -21 55 -45 90 -59 53 -22 57 -25 38 -35 -11 -6 -37 -11
-58 -11 -29 0 -46 8 -80 40 -45 41 -80 51 -90 25 -3 -8 6 -29 20 -46 14 -17
26 -37 26 -46 0 -8 13 -28 29 -44 24 -24 38 -29 75 -29 l46 0 0 -45 c0 -56 -9
-57 -87 -6 -89 57 -161 157 -179 248 -6 30 -4 32 27 36 96 11 110 9 143 -28z
m601 29 c46 -7 47 -7 41 -38 -9 -45 -50 -125 -88 -170 -33 -40 -141 -116 -165
-116 -9 0 -13 18 -13 68 0 48 -6 79 -20 107 -11 21 -19 39 -17 40 1 1 28 14
59 29 32 15 67 40 78 57 23 31 39 34 125 23z m-313 -125 c30 -16 48 -71 48
-147 l0 -69 -31 -7 c-40 -8 -98 -8 -138 0 l-31 7 0 68 c0 75 9 108 40 139 22
22 78 27 112 9z m-220 -49 c21 0 38 -4 38 -10 0 -17 -82 -12 -102 7 -25 23
-23 37 4 19 12 -9 39 -16 60 -16z"/>
</g>
</svg>
