<?xml version="1.0" standalone="no"?>
<!DOCTYPE svg PUBLIC "-//W3C//DTD SVG 20010904//EN"
 "http://www.w3.org/TR/2001/REC-SVG-20010904/DTD/svg10.dtd">
<svg version="1.0" xmlns="http://www.w3.org/2000/svg"
 width="100.000000pt" height="100.000000pt" viewBox="0 0 100.000000 100.000000"
 preserveAspectRatio="xMidYMid meet">

<g transform="translate(0.000000,100.000000) scale(0.100000,-0.100000)"
fill="#000000" stroke="none">
<path d="M131 906 c-49 -27 -50 -37 -51 -404 0 -372 2 -386 55 -410 41 -19
697 -17 734 2 49 26 51 41 51 406 0 365 -2 380 -51 406 -39 20 -702 20 -738 0z
m729 -46 c19 -19 20 -33 20 -360 0 -327 -1 -341 -20 -360 -19 -19 -33 -20
-360 -20 -327 0 -341 1 -360 20 -19 19 -20 33 -20 360 0 327 1 341 20 360 19
19 33 20 360 20 327 0 341 -1 360 -20z"/>
<path d="M225 755 c-14 -13 -25 -33 -25 -45 0 -32 44 -70 80 -70 36 0 80 38
80 70 0 32 -44 70 -80 70 -19 0 -40 -9 -55 -25z m89 -38 c13 -21 -7 -39 -38
-35 -28 4 -45 36 -26 48 21 14 51 8 64 -13z"/>
<path d="M205 608 c-3 -8 -4 -101 -3 -208 l3 -195 75 0 75 0 0 205 0 205 -73
3 c-53 2 -74 -1 -77 -10z m115 -198 l0 -170 -40 0 -40 0 0 170 0 170 40 0 40
0 0 -170z"/>
<path d="M384 607 c-2 -7 -3 -100 -2 -207 l3 -195 75 0 75 0 5 125 c3 69 9
131 13 138 5 6 18 12 30 12 47 0 52 -12 57 -147 l5 -128 75 0 75 0 3 140 c2
129 1 144 -20 184 -13 25 -35 53 -49 64 -37 26 -106 33 -151 14 -31 -13 -37
-13 -42 -1 -7 19 -144 20 -152 1z m116 -46 c0 -31 18 -34 53 -9 43 31 125 32
157 3 40 -35 50 -76 50 -200 l0 -115 -40 0 -40 0 0 111 c0 109 0 111 -29 140
-20 20 -39 29 -61 29 -22 0 -41 -9 -61 -29 -29 -29 -29 -31 -29 -140 l0 -111
-40 0 -40 0 0 170 0 170 40 0 c33 0 40 -3 40 -19z"/>
</g>
</svg>
