<?xml version="1.0" standalone="no"?>
<!DOCTYPE svg PUBLIC "-//W3C//DTD SVG 20010904//EN"
 "http://www.w3.org/TR/2001/REC-SVG-20010904/DTD/svg10.dtd">
<svg version="1.0" xmlns="http://www.w3.org/2000/svg"
 width="100.000000pt" height="100.000000pt" viewBox="0 0 100.000000 100.000000"
 preserveAspectRatio="xMidYMid meet">

<g transform="translate(0.000000,100.000000) scale(0.100000,-0.100000)"
fill="#000000" stroke="none">
<path d="M20 980 c-19 -19 -20 -33 -20 -480 0 -447 1 -461 20 -480 19 -19 33
-20 380 -20 432 0 400 -11 400 132 0 90 0 91 -20 73 -15 -13 -20 -33 -22 -89
l-3 -71 -355 0 -355 0 0 455 0 455 355 0 355 0 3 -64 c2 -45 9 -72 23 -89 l19
-25 0 92 c0 141 32 131 -400 131 -347 0 -361 -1 -380 -20z"/>
<path d="M744 729 c-4 -6 36 -53 92 -110 l98 -99 -304 -2 c-263 -3 -305 -5
-305 -18 0 -13 42 -15 305 -18 l304 -2 -99 -100 c-79 -79 -97 -102 -87 -112
10 -10 38 13 135 110 l122 122 -120 120 c-66 66 -123 120 -127 120 -4 0 -10
-5 -14 -11z"/>
</g>
</svg>
