<?xml version="1.0" standalone="no"?>
<!DOCTYPE svg PUBLIC "-//W3C//DTD SVG 20010904//EN"
 "http://www.w3.org/TR/2001/REC-SVG-20010904/DTD/svg10.dtd">
<svg version="1.0" xmlns="http://www.w3.org/2000/svg"
 width="50.000000pt" height="50.000000pt" viewBox="0 0 50.000000 50.000000"
 preserveAspectRatio="xMidYMid meet">

<g transform="translate(0.000000,50.000000) scale(0.100000,-0.100000)"
fill="#000000" stroke="none">
<path d="M86 464 c-13 -13 -16 -46 -16 -200 0 -116 4 -184 10 -184 6 0 10 -13
10 -30 l0 -30 160 0 160 0 0 30 c0 17 5 30 10 30 6 0 10 68 10 184 0 154 -3
187 -16 200 -23 23 -305 23 -328 0z m322 -187 l2 -177 -160 0 -160 0 0 173 c0
96 3 177 7 181 4 3 75 5 157 4 l151 -3 3 -178z m-18 -217 c0 -19 -7 -20 -140
-20 -133 0 -140 1 -140 20 0 19 7 20 140 20 133 0 140 -1 140 -20z"/>
<path d="M114 427 c-2 -7 -3 -60 -2 -118 l3 -104 135 0 135 0 0 115 0 115
-133 3 c-104 2 -134 0 -138 -11z m256 -107 l0 -100 -120 0 -120 0 0 100 0 100
120 0 120 0 0 -100z"/>
<path d="M190 365 c0 -8 5 -15 10 -15 6 0 10 7 10 15 0 8 -4 15 -10 15 -5 0
-10 -7 -10 -15z"/>
<path d="M240 350 c0 -16 -4 -30 -10 -30 -5 0 -10 -4 -10 -10 0 -5 9 -10 20
-10 17 0 20 7 20 40 0 22 -4 40 -10 40 -5 0 -10 -13 -10 -30z"/>
<path d="M290 365 c0 -8 5 -15 10 -15 6 0 10 7 10 15 0 8 -4 15 -10 15 -5 0
-10 -7 -10 -15z"/>
<path d="M203 265 c2 -5 23 -10 47 -10 24 0 45 5 47 10 2 6 -18 10 -47 10 -29
0 -49 -4 -47 -10z"/>
<path d="M280 150 c0 -5 20 -10 45 -10 25 0 45 5 45 10 0 6 -20 10 -45 10 -25
0 -45 -4 -45 -10z"/>
<path d="M120 140 c0 -5 7 -10 15 -10 8 0 15 5 15 10 0 6 -7 10 -15 10 -8 0
-15 -4 -15 -10z"/>
</g>
</svg>
