<?xml version="1.0" standalone="no"?>
<!DOCTYPE svg PUBLIC "-//W3C//DTD SVG 20010904//EN"
 "http://www.w3.org/TR/2001/REC-SVG-20010904/DTD/svg10.dtd">
<svg version="1.0" xmlns="http://www.w3.org/2000/svg"
 width="64.000000pt" height="64.000000pt" viewBox="0 0 64.000000 64.000000"
 preserveAspectRatio="xMidYMid meet">

<g transform="translate(0.000000,64.000000) scale(0.100000,-0.100000)"
fill="#000000" stroke="none">
<path d="M98 542 l-58 -59 2 -219 3 -219 225 0 225 0 3 67 3 67 47 3 47 3 0
115 0 115 -47 3 -47 3 -3 87 -3 87 -169 3 -169 2 -59 -58z m382 -42 l0 -80
-167 -2 -168 -3 0 -115 0 -115 168 -3 167 -2 0 -60 0 -60 -210 0 -210 0 0 200
0 199 58 3 57 3 3 58 3 57 149 0 150 0 0 -80z m-320 25 l0 -45 -47 0 -47 0 44
45 c24 25 45 45 47 45 2 0 3 -20 3 -45z m420 -225 l0 -100 -210 0 -210 0 0
100 0 100 210 0 210 0 0 -100z"/>
<path d="M80 100 c0 -11 5 -20 10 -20 6 0 10 9 10 20 0 11 -4 20 -10 20 -5 0
-10 -9 -10 -20z"/>
<path d="M130 100 c0 -11 5 -20 10 -20 6 0 10 9 10 20 0 11 -4 20 -10 20 -5 0
-10 -9 -10 -20z"/>
<path d="M180 100 c0 -11 5 -20 10 -20 6 0 10 9 10 20 0 11 -4 20 -10 20 -5 0
-10 -9 -10 -20z"/>
<path d="M230 100 c0 -11 5 -20 10 -20 6 0 10 9 10 20 0 11 -4 20 -10 20 -5 0
-10 -9 -10 -20z"/>
<path d="M280 100 c0 -11 5 -20 10 -20 6 0 10 9 10 20 0 11 -4 20 -10 20 -5 0
-10 -9 -10 -20z"/>
<path d="M330 100 c0 -11 5 -20 10 -20 6 0 10 9 10 20 0 11 -4 20 -10 20 -5 0
-10 -9 -10 -20z"/>
<path d="M380 100 c0 -11 5 -20 10 -20 6 0 10 9 10 20 0 11 -4 20 -10 20 -5 0
-10 -9 -10 -20z"/>
<path d="M430 100 c0 -11 5 -20 10 -20 6 0 10 9 10 20 0 11 -4 20 -10 20 -5 0
-10 -9 -10 -20z"/>
<path d="M240 301 c0 -34 4 -61 10 -61 6 0 10 9 10 19 0 14 8 21 28 23 24 3
27 7 27 38 0 33 -2 35 -37 38 l-38 3 0 -60z m60 19 c0 -13 -7 -20 -20 -20 -13
0 -20 7 -20 20 0 13 7 20 20 20 13 0 20 -7 20 -20z"/>
<path d="M340 300 c0 -59 0 -60 28 -60 37 0 52 17 52 60 0 43 -15 60 -52 60
-28 0 -28 -1 -28 -60z m55 0 c0 -25 -5 -36 -17 -38 -15 -3 -18 4 -18 38 0 34
3 41 18 38 12 -2 17 -13 17 -38z"/>
<path d="M440 300 c0 -33 4 -60 10 -60 6 0 10 9 10 20 0 13 7 20 20 20 11 0
20 5 20 10 0 6 -9 10 -20 10 -13 0 -20 7 -20 20 0 15 7 20 25 20 14 0 25 5 25
10 0 6 -16 10 -35 10 l-35 0 0 -60z"/>
</g>
</svg>
