<?xml version="1.0" standalone="no"?>
<!DOCTYPE svg PUBLIC "-//W3C//DTD SVG 20010904//EN"
 "http://www.w3.org/TR/2001/REC-SVG-20010904/DTD/svg10.dtd">
<svg version="1.0" xmlns="http://www.w3.org/2000/svg"
 width="100.000000pt" height="100.000000pt" viewBox="0 0 100.000000 100.000000"
 preserveAspectRatio="xMidYMid meet">

<g transform="translate(0.000000,100.000000) scale(0.100000,-0.100000)"
fill="#000000" stroke="none">
<path d="M386 944 c-225 -54 -376 -286 -338 -517 62 -367 512 -513 773 -252
329 330 18 879 -435 769z m219 -39 c312 -81 418 -473 191 -701 -241 -240 -651
-107 -709 230 -50 295 226 546 518 471z"/>
<path d="M437 627 c-119 -51 -226 -100 -237 -109 -27 -24 -26 -64 2 -82 36
-23 134 -48 160 -41 19 5 29 1 41 -19 19 -29 153 -122 197 -137 36 -13 64 1
84 39 13 26 66 330 66 380 0 31 -35 62 -67 62 -16 -1 -126 -42 -246 -93z m266
0 c-1 -27 -11 -108 -23 -180 -20 -122 -38 -177 -59 -177 -17 0 -179 112 -186
128 -4 12 16 38 76 94 45 43 80 81 76 84 -3 3 -52 -26 -109 -64 -56 -38 -112
-72 -123 -76 -29 -9 -130 25 -130 44 0 17 429 201 460 197 17 -2 20 -9 18 -50z"/>
</g>
</svg>
