<?xml version="1.0" standalone="no"?>
<!DOCTYPE svg PUBLIC "-//W3C//DTD SVG 20010904//EN"
 "http://www.w3.org/TR/2001/REC-SVG-20010904/DTD/svg10.dtd">
<svg version="1.0" xmlns="http://www.w3.org/2000/svg"
 width="96.000000pt" height="96.000000pt" viewBox="0 0 96.000000 96.000000"
 preserveAspectRatio="xMidYMid meet">

<g transform="translate(0.000000,96.000000) scale(0.100000,-0.100000)"
fill="#000000" stroke="none">
<path d="M433 945 c-72 -16 -150 -55 -187 -94 -25 -27 -26 -27 -15 -118 10
-87 10 -92 -10 -112 -38 -38 -23 -153 21 -167 10 -3 26 -20 35 -37 9 -18 29
-44 46 -60 16 -15 28 -29 26 -31 -2 -1 -62 -27 -134 -58 l-130 -55 -3 -56 c-2
-46 1 -60 18 -77 19 -19 30 -20 380 -20 350 0 361 1 380 20 17 17 20 31 18 77
l-3 56 -130 55 c-71 31 -132 57 -134 59 -2 1 10 15 26 30 17 16 37 42 46 60 9
17 25 34 35 37 43 14 59 129 22 166 -17 17 -20 33 -20 125 l0 105 -31 19 c-17
11 -46 22 -65 25 -21 4 -41 18 -54 36 -24 34 -41 36 -137 15z m117 -55 c13
-18 30 -30 44 -30 13 0 37 -5 55 -11 l31 -11 0 -115 c0 -107 1 -115 21 -120
29 -8 23 -64 -9 -78 -12 -5 -25 -18 -28 -28 -17 -52 -130 -137 -184 -137 -54
0 -167 85 -184 137 -3 10 -16 23 -28 28 -33 14 -38 70 -7 78 23 6 23 -2 2 168
-5 46 -5 47 39 77 52 35 149 71 195 72 24 0 37 -7 53 -30z m-73 -570 c10 0 37
9 61 20 l42 19 0 -29 c0 -23 -6 -30 -31 -39 -18 -6 -49 -11 -69 -11 -20 0 -51
5 -69 11 -25 9 -31 16 -31 40 l0 29 40 -20 c21 -11 47 -20 57 -20z m-67 -65
c52 -20 117 -15 173 11 l36 17 108 -45 c93 -40 108 -49 108 -70 l0 -23 -355 0
-355 0 0 23 c0 20 15 30 100 67 105 46 112 47 185 20z"/>
</g>
</svg>
