<?xml version="1.0" standalone="no"?>
<!DOCTYPE svg PUBLIC "-//W3C//DTD SVG 20010904//EN"
 "http://www.w3.org/TR/2001/REC-SVG-20010904/DTD/svg10.dtd">
<svg version="1.0" xmlns="http://www.w3.org/2000/svg"
 width="500.000000pt" height="500.000000pt" viewBox="0 0 500.000000 500.000000"
 preserveAspectRatio="xMidYMid meet">

<g transform="translate(0.000000,500.000000) scale(0.100000,-0.100000)"
fill="#000000" stroke="none">
<path d="M2060 3625 c-36 -7 -222 -63 -415 -123 -192 -61 -368 -116 -390 -122
-35 -10 -41 -16 -43 -42 -2 -21 1 -27 10 -22 10 6 11 4 1 -7 -7 -7 -13 -20
-13 -28 0 -14 1 -14 10 -1 7 12 9 10 7 -7 0 -12 -4 -20 -8 -17 -4 2 -8 -34 -8
-81 1 -47 5 -83 9 -80 5 3 12 1 15 -5 4 -6 1 -9 -7 -8 -10 2 -13 -41 -14 -224
0 -171 2 -225 11 -218 8 7 12 5 12 -5 0 -7 -5 -13 -11 -12 -16 3 -19 -425 -3
-435 9 -6 9 -8 0 -8 -7 0 -13 -7 -13 -16 0 -9 5 -12 13 -8 9 6 9 5 0 -7 -15
-18 -13 -80 2 -72 6 3 4 0 -2 -8 -17 -18 -17 -63 0 -53 9 6 9 5 0 -7 -17 -21
-13 -195 5 -191 8 1 11 -1 8 -6 -3 -5 12 -23 34 -41 26 -21 41 -27 46 -19 5 7
3 8 -6 3 -9 -6 -11 -4 -5 5 6 9 4 11 -5 5 -9 -5 -11 -4 -6 3 4 7 3 12 -2 12
-10 0 -10 45 1 56 3 4 4 -3 2 -16 -3 -14 4 -30 19 -45 15 -15 20 -25 13 -28
-9 -3 -8 -8 2 -20 7 -9 17 -15 21 -12 5 3 11 -3 13 -12 3 -10 5 -1 6 20 0 21
-3 36 -7 33 -5 -3 -9 1 -9 9 0 8 4 12 9 9 5 -3 8 12 7 35 -2 22 -7 38 -11 35
-5 -3 -5 -11 -1 -17 5 -9 3 -9 -8 0 -12 10 -18 10 -29 0 -12 -10 -12 -9 -1 6
8 9 16 15 19 13 2 -3 11 1 19 9 17 17 14 60 -4 60 -7 0 -12 5 -11 10 1 6 8 9
14 7 9 -2 12 64 12 253 1 221 -1 255 -14 255 -10 0 -12 -5 -7 -12 13 -22 13
-40 -1 -29 -13 11 -15 59 -3 78 4 6 2 14 -3 16 -6 3 -5 4 2 3 7 -2 12 -13 12
-24 -1 -12 3 -22 7 -22 5 0 9 16 9 36 0 25 -3 33 -12 28 -10 -6 -10 -4 -2 7 6
8 12 47 13 87 2 64 0 76 -19 92 -17 15 -18 19 -5 24 9 3 13 2 10 -3 -3 -5 -1
-12 4 -15 5 -3 8 25 8 64 0 39 -4 70 -9 70 -5 0 -6 -6 -2 -12 5 -9 2 -9 -9 1
-18 14 -22 22 -9 20 21 -4 32 3 32 20 0 14 -6 19 -19 16 -11 -2 -25 3 -31 11
-7 7 -16 12 -20 9 -5 -3 -11 -1 -14 4 -4 5 -2 12 4 16 5 3 10 11 10 17 0 7 -4
7 -13 0 -7 -6 -22 -10 -32 -8 -11 2 -23 -2 -27 -8 -4 -6 -6 -1 -5 11 1 15 5
19 12 13 7 -6 16 -5 25 3 10 9 11 9 6 0 -9 -16 10 -17 19 -3 5 8 11 7 20 0 8
-7 19 -9 24 -5 7 3 8 0 5 -9 -3 -9 -12 -12 -22 -9 -15 6 -15 4 1 -14 10 -12
26 -20 35 -19 14 2 18 17 20 87 2 46 -1 80 -5 75 -4 -4 -8 -13 -8 -19 0 -7 -4
-14 -10 -15 -5 -2 -17 -9 -25 -15 -13 -10 -13 -10 -1 5 7 10 18 15 24 11 6 -4
8 0 4 10 -3 9 0 23 8 31 10 10 15 36 15 83 0 86 -11 103 -50 78 -13 -8 -13 -7
-1 9 11 13 11 20 3 28 -9 9 -12 8 -12 -2 0 -8 -6 -4 -13 10 -8 15 -20 24 -31
22 -11 -2 -15 1 -11 8 3 6 -4 19 -17 30 -13 11 -19 19 -15 20 5 0 42 -27 83
-61 l74 -60 144 45 c79 25 148 46 152 45 5 -1 -56 -22 -136 -49 l-145 -47 -3
-766 c-1 -511 1 -767 8 -767 14 0 772 239 790 249 13 7 39 61 69 144 10 27 11
27 45 13 19 -8 59 -19 90 -26 54 -11 57 -10 99 18 66 46 164 156 198 223 17
34 29 62 27 63 -2 1 -33 7 -69 13 -53 9 -117 31 -170 60 -4 2 -10 -13 -14 -34
-16 -88 -88 -169 -202 -227 -60 -30 -561 -196 -591 -196 -9 0 -12 56 -10 227
l3 227 260 83 c143 45 279 85 302 88 l41 7 -24 35 c-27 41 -44 93 -44 141 0
37 1 37 -48 16 -47 -20 -244 -84 -257 -83 -5 0 55 23 135 50 80 28 149 54 154
59 5 5 10 21 12 37 1 15 6 48 9 72 6 40 5 44 -9 32 -9 -7 -13 -17 -10 -22 3
-5 -2 -6 -11 -3 -13 5 -10 11 15 29 16 12 27 25 23 28 -3 4 -1 7 5 7 7 0 12 6
12 14 0 17 -32 15 -38 -2 -2 -7 -8 -12 -14 -12 -7 0 -7 5 1 13 15 19 1 30 -18
14 -14 -11 -14 -10 -2 5 7 10 16 16 20 13 4 -2 21 -6 37 -9 25 -4 27 -3 12 8
-11 8 -14 17 -8 26 4 7 6 20 3 29 -4 12 -2 12 9 -2 13 -18 14 -18 32 2 12 14
16 26 11 38 -14 30 -11 46 8 49 10 1 17 -4 17 -13 0 -12 -3 -13 -13 -4 -10 8
-14 7 -14 -4 0 -8 5 -11 10 -8 6 4 7 1 2 -8 -7 -11 -6 -12 7 -2 12 11 18 9 32
-6 12 -13 14 -21 6 -26 -5 -3 -8 -10 -5 -15 3 -5 1 -11 -4 -14 -5 -3 -8 8 -7
24 1 18 -2 29 -8 27 -6 -2 -10 -12 -8 -22 2 -10 -1 -14 -7 -10 -6 3 -11 1 -11
-4 0 -18 5 -26 13 -23 5 1 6 -2 2 -7 -3 -6 -12 -8 -20 -4 -11 4 -13 1 -8 -13
4 -12 3 -15 -5 -10 -11 7 -16 -7 -15 -41 1 -7 -3 -13 -8 -13 -5 0 -9 -5 -9
-11 0 -5 5 -7 12 -3 7 4 8 3 4 -5 -4 -6 -12 -9 -17 -6 -5 4 -10 -9 -10 -27 -5
-112 -3 -158 6 -158 6 0 5 -3 -1 -8 -14 -8 -6 -74 7 -66 5 3 8 2 7 -3 -1 -4 3
-18 10 -30 7 -13 10 -23 6 -23 -3 0 -1 -7 6 -15 8 -9 21 -13 34 -10 21 6 21 6
2 -9 -12 -9 -14 -16 -7 -16 18 0 41 -26 46 -51 5 -25 23 -49 38 -49 6 0 1 10
-10 23 -20 21 -23 51 -7 65 4 4 5 0 1 -9 -7 -22 20 -60 38 -53 16 6 11 24 -6
24 -6 0 -7 -5 -3 -12 5 -7 3 -8 -6 -3 -10 6 -10 11 4 20 18 13 12 50 -7 38 -6
-4 -7 -1 -1 8 13 21 14 42 3 55 -7 8 -6 14 1 19 7 4 7 13 -1 27 -6 11 -7 18
-2 15 5 -4 10 7 10 23 0 17 -5 27 -10 23 -6 -3 -7 -1 -3 6 4 6 12 9 17 6 5 -4
9 -1 9 4 0 6 -4 11 -8 11 -4 0 -8 9 -8 20 0 10 2 17 5 15 2 -3 10 0 18 6 16
14 18 53 1 43 -7 -4 -8 -3 -4 5 4 6 12 8 18 5 8 -5 9 -1 5 10 -4 9 -3 15 2 12
4 -3 15 13 24 35 12 32 13 38 2 29 -13 -11 -13 -9 -6 29 1 2 7 -2 14 -8 17
-13 28 -4 20 17 -4 10 -2 13 5 8 6 -3 16 2 21 13 13 24 14 34 2 26 -5 -3 -19
7 -30 21 -12 15 -21 23 -21 19 0 -4 -14 9 -32 29 -38 43 -46 45 -42 10 1 -14
0 -23 -4 -19 -3 3 -7 18 -8 33 -2 38 -3 39 -15 22 -9 -13 -10 -12 -5 2 3 12 1
15 -9 11 -8 -3 -13 -8 -10 -12 2 -4 -2 -8 -10 -8 -18 0 -19 9 -3 25 9 9 9 12
0 13 -26 3 -31 4 -38 12 -13 13 -41 7 -59 -13 -16 -17 -16 -20 -2 -20 9 0 18
-4 21 -8 3 -5 -4 -8 -16 -8 -12 1 -23 -5 -25 -12 -3 -8 2 -10 14 -6 13 4 15 3
4 -4 -11 -8 -11 -11 0 -16 8 -3 3 -3 -10 0 -21 5 -23 3 -18 -15 3 -11 0 -24
-5 -28 -7 -4 -8 -1 -3 8 4 8 -16 -11 -45 -41 -30 -30 -54 -58 -54 -62 -1 -3
-5 -10 -10 -15 -5 -5 -6 -3 -2 5 10 17 -9 15 -24 -3 -13 -15 -3 -21 25 -15 6
1 7 -2 3 -6 -4 -4 4 -17 19 -30 31 -27 44 -23 19 5 -12 13 -14 21 -6 26 6 3 9
1 8 -6 -3 -13 2 -15 38 -18 8 0 12 -6 9 -11 -4 -6 -10 -8 -15 -5 -4 3 -10 -2
-13 -9 -7 -19 18 -40 35 -30 7 4 10 4 6 -1 -4 -4 -3 -14 3 -22 24 -28 -4 -11
-76 48 l-75 61 -73 -30 c-39 -16 -120 -45 -179 -62 l-108 -33 0 -94 c0 -51 4
-93 8 -93 5 0 42 11 82 25 40 14 78 25 84 24 14 -1 -154 -59 -171 -59 -11 0
-13 43 -11 217 l3 217 165 53 c308 100 404 118 477 93 28 -10 33 -8 96 54 37
36 92 82 122 102 63 42 61 52 -12 80 -48 19 -149 23 -248 12 -47 -5 -53 -4
-30 3 38 13 210 17 250 6 50 -14 -121 114 -173 129 -56 17 -166 16 -252 -1z
m135 -150 c-98 -33 -498 -155 -501 -152 -6 5 467 155 491 155 11 0 16 -1 10
-3z m-947 -295 c-7 -10 -14 -17 -17 -15 -4 4 18 35 25 35 2 0 -1 -9 -8 -20z
m55 -23 c19 12 37 12 37 1 0 -6 -6 -8 -14 -5 -18 7 -40 -18 -30 -34 4 -7 3 -9
-3 -6 -6 4 -10 19 -10 34 0 16 2 22 4 15 3 -6 10 -9 16 -5z m55 -23 c0 -17 -3
-22 -8 -13 -5 6 -6 18 -3 26 8 19 11 16 11 -13z m-103 -32 c-3 -3 -11 0 -18 7
-9 10 -8 11 6 5 10 -3 15 -9 12 -12z m1110 8 c-3 -5 -12 -10 -18 -10 -7 0 -6
4 3 10 19 12 23 12 15 0z m-1065 -25 c-8 -9 -6 -18 7 -31 17 -17 17 -18 -1
-11 -13 5 -17 3 -13 -7 3 -8 0 -19 -7 -25 -10 -8 -12 -5 -10 12 1 12 3 24 4
27 6 14 4 36 -3 47 -6 8 -2 10 13 6 15 -4 18 -9 10 -18z m1110 17 c0 -4 -10
-9 -22 -9 -18 -2 -20 0 -8 7 18 12 30 13 30 2z m-84 -58 c0 -18 -4 -30 -8 -28
-5 3 -5 10 -2 16 5 7 0 9 -13 6 -21 -6 -25 5 -11 28 15 23 34 10 34 -22z m159
8 c-3 -3 -11 0 -18 7 -9 10 -8 11 6 5 10 -3 15 -9 12 -12z m-1228 -9 c0 -9 -4
-10 -14 -2 -7 6 -13 12 -13 14 0 1 6 2 13 2 8 0 14 -6 14 -14z m861 -48 c-3
-3 -9 2 -12 12 -6 14 -5 15 5 6 7 -7 10 -15 7 -18z m171 8 c-12 -15 -12 -16 3
-10 11 4 17 2 15 -6 -1 -7 3 -11 9 -10 6 1 11 -5 11 -13 0 -12 -3 -12 -17 1
-20 18 -34 20 -24 3 4 -7 3 -8 -4 -4 -7 4 -12 2 -12 -4 0 -6 -5 -8 -11 -4 -8
4 -7 9 2 15 8 5 10 9 5 9 -5 0 -1 9 9 20 22 24 33 27 14 3z m111 -22 c3 -2 -2
-2 -11 2 -21 7 -39 -11 -32 -32 4 -13 3 -14 -5 -1 -6 8 -8 19 -4 25 4 5 7 13
8 18 1 4 2 10 3 13 1 5 20 -6 41 -25z m-1150 4 c-14 -17 -30 -20 -30 -4 0 5 4
8 9 4 5 -3 12 -1 16 5 3 5 9 10 12 10 3 0 0 -7 -7 -15z m45 -13 c-3 -3 -11 0
-18 7 -9 10 -8 11 6 5 10 -3 15 -9 12 -12z m859 6 c-3 -4 -9 -8 -15 -8 -5 0
-9 4 -9 8 0 5 7 9 15 9 8 0 12 -4 9 -9z m-794 -8 c0 -5 -2 -10 -4 -10 -3 0 -8
5 -11 10 -3 6 -1 10 4 10 6 0 11 -4 11 -10z m915 -52 c5 4 5 2 1 -5 -4 -7 -13
-10 -20 -7 -8 3 -16 -2 -19 -13 -3 -12 -5 -8 -6 10 -1 24 1 26 18 18 10 -6 22
-7 26 -3z m108 -2 c3 3 4 -1 3 -10 -1 -8 -6 -19 -10 -23 -4 -4 -6 -3 -4 4 2 6
-6 19 -17 28 -20 16 -20 16 1 6 12 -6 24 -8 27 -5z m-59 -33 c-3 -36 -2 -35
-14 -28 -6 4 -7 12 -3 18 4 7 8 15 9 20 6 29 11 22 8 -10z m-52 -31 c8 -6 18
-9 22 -5 4 4 4 -1 0 -10 -6 -17 -7 -16 -21 2 -7 11 -20 18 -28 15 -8 -4 -15
-2 -15 4 0 13 24 10 42 -6z m-1027 -2 c3 -5 1 -10 -4 -10 -6 0 -11 5 -11 10 0
6 2 10 4 10 3 0 8 -4 11 -10z m1023 -35 c-3 -3 -9 2 -12 12 -6 14 -5 15 5 6 7
-7 10 -15 7 -18z m76 16 c3 -5 0 -14 -8 -20 -10 -9 -17 -7 -27 6 -8 9 -9 14
-2 10 6 -4 14 -3 18 3 8 12 12 13 19 1z m-1048 -36 c1 -8 -1 -17 -5 -19 -4 -3
-7 6 -7 19 0 25 8 25 12 0z m51 10 c4 -4 3 -5 -4 -1 -6 3 -16 -2 -22 -11 -9
-16 -10 -16 -8 3 1 21 19 26 34 9z m1016 0 c-3 -9 -8 -14 -10 -11 -3 3 -2 9 2
15 9 16 15 13 8 -4z m-1029 -40 c-5 -11 -1 -14 12 -9 15 5 16 4 4 -4 -10 -8
-18 -8 -28 0 -11 9 -11 13 0 19 18 12 18 11 12 -6z m1029 0 c4 -8 1 -17 -6
-21 -7 -4 -9 -4 -5 1 4 4 3 14 -3 22 -7 8 -8 13 -1 13 5 0 12 -7 15 -15z
m-1093 -5 c0 -5 -2 -10 -4 -10 -3 0 -8 5 -11 10 -3 6 -1 10 4 10 6 0 11 -4 11
-10z m1037 -7 c2 -6 -1 -14 -6 -18 -7 -4 -8 0 -4 11 4 11 3 15 -5 10 -6 -3
-13 -2 -16 3 -4 5 2 8 11 7 9 -2 19 -8 20 -13z m-1058 -7 c11 -14 6 -15 -27
-7 -4 1 8 21 12 21 2 0 9 -6 15 -14z m67 -22 c-1 -8 -5 -14 -9 -14 -4 0 -11 0
-17 0 -8 0 -8 10 -1 49 3 11 29 -22 27 -35z m962 1 c-3 -3 -9 2 -12 12 -6 14
-5 15 5 6 7 -7 10 -15 7 -18z m28 -37 c1 -18 -1 -27 -3 -20 -4 10 -8 10 -19 1
-8 -7 -17 -9 -21 -5 -3 3 -1 6 7 6 10 0 10 3 1 14 -8 10 -9 16 -1 21 6 4 9 3
8 -2 -2 -4 2 -9 7 -10 6 -1 9 5 7 13 -2 8 1 14 5 14 5 0 9 -15 9 -32z m70 -44
c1 -8 -2 -12 -7 -8 -5 3 -9 0 -9 -5 0 -6 -5 -11 -11 -11 -8 0 -8 4 -1 13 13
15 13 26 1 52 -7 14 -4 13 8 -4 9 -13 18 -30 19 -37z m-1083 21 c-7 -21 -12
-19 -10 4 0 11 5 18 9 15 4 -3 5 -11 1 -19z m62 7 c-3 -3 -11 0 -18 7 -9 10
-8 11 6 5 10 -3 15 -9 12 -12z m-3 -24 c-8 -8 -8 -17 -1 -30 6 -11 8 -22 6
-25 -3 -2 -8 5 -12 16 -4 13 -11 18 -18 14 -7 -3 -3 3 7 15 11 12 22 22 25 22
3 0 0 -5 -7 -12z m-54 -22 c15 5 15 4 -1 -6 -9 -6 -14 -17 -11 -23 4 -7 3 -9
-1 -4 -5 4 -10 18 -11 30 -2 12 0 17 2 10 3 -7 13 -10 22 -7z m57 -55 c3 -5 0
-13 -6 -17 -7 -4 -9 -3 -5 4 3 5 0 13 -6 15 -9 4 -10 6 -1 6 6 1 14 -3 18 -8z
m-25 -32 c0 -5 6 -7 13 -3 8 6 8 3 -2 -9 -11 -14 -26 -16 -59 -8 -2 1 0 6 4
12 4 8 9 8 17 0 17 -17 31 -13 17 4 -9 10 -9 15 -1 15 6 0 11 -5 11 -11z m-10
-49 c0 -5 -5 -10 -11 -10 -5 0 -7 5 -4 10 3 6 8 10 11 10 2 0 4 -4 4 -10z
m-25 -30 c3 -6 -1 -7 -9 -4 -18 7 -21 14 -7 14 6 0 13 -4 16 -10z m-60 -49 c3
-5 2 -12 -3 -15 -5 -3 -9 1 -9 9 0 17 3 19 12 6z m48 -42 c-9 -9 -12 -7 -10 9
1 14 5 18 11 12 7 -7 6 -14 -1 -21z m-31 -46 c-10 -4 -10 -8 -1 -19 7 -8 7
-14 1 -14 -12 0 -23 26 -15 34 4 3 11 6 17 5 6 0 5 -3 -2 -6z m97 -6 c10 3 9
0 -4 -9 -11 -7 -32 -13 -47 -14 -22 0 -25 2 -16 13 8 10 14 11 22 3 17 -17 29
-11 15 8 -11 14 -11 15 0 5 7 -6 21 -9 30 -6z m-29 -47 c0 -5 -5 -10 -11 -10
-5 0 -7 5 -4 10 3 6 8 10 11 10 2 0 4 -4 4 -10z m-20 -36 c0 -2 -9 0 -20 6
-11 6 -20 13 -20 16 0 2 9 0 20 -6 11 -6 20 -13 20 -16z m55 -5 c-2 -23 -30
-35 -41 -18 -3 5 0 8 8 7 7 -2 14 4 14 12 3 29 4 31 12 26 5 -3 8 -15 7 -27z
m-85 -35 c0 -8 -19 -13 -24 -6 -3 5 1 9 9 9 8 0 15 -2 15 -3z m68 -27 c-1 -2
3 -11 10 -19 10 -13 9 -18 -5 -29 -16 -12 -17 -12 -6 2 16 21 5 32 -16 17 -12
-10 -12 -7 2 8 9 11 15 24 12 27 -3 4 -2 5 1 3 3 -2 4 -6 2 -9z m-22 -86 c19
-15 21 -20 9 -25 -9 -3 -12 -12 -8 -23 5 -15 3 -15 -10 2 l-16 20 -2 -20 c-1
-11 -1 -24 0 -28 1 -5 -2 -6 -7 -3 -13 8 -9 51 6 69 10 12 10 16 0 20 -7 3 -9
6 -5 6 5 1 20 -8 33 -18z m44 -60 c0 -5 -10 -11 -22 -14 -22 -6 -22 -6 -4 8
23 17 26 18 26 6z m-4 -36 c-1 -8 -8 -21 -16 -28 -10 -10 -11 -9 -4 3 5 8 9
18 10 23 3 14 4 17 8 17 2 0 3 -7 2 -15z m-39 -47 c1 -43 1 -43 -6 -8 -6 31
-5 50 3 50 1 0 3 -19 3 -42z m-72 -51 c0 -12 44 -15 62 -4 14 9 27 -9 18 -23
-4 -7 -13 -6 -26 1 -11 6 -27 8 -34 5 -8 -3 -18 0 -22 7 -10 16 -14 41 -5 32
4 -4 7 -12 7 -18z m110 -7 c3 -5 1 -10 -4 -10 -6 0 -11 5 -11 10 0 6 2 10 4
10 3 0 8 -4 11 -10z m-94 -37 c2 1 3 0 1 -2 -6 -11 -39 -6 -39 5 0 9 5 10 17
4 10 -5 19 -8 21 -7z"/>
<path d="M2295 3060 c-3 -5 1 -10 10 -10 9 0 13 5 10 10 -3 6 -8 10 -10 10 -2
0 -7 -4 -10 -10z"/>
<path d="M1294 2736 c1 -8 5 -18 8 -22 4 -3 5 1 4 10 -1 8 -5 18 -8 22 -4 3
-5 -1 -4 -10z"/>
<path d="M1291 2066 c-10 -11 -9 -14 1 -12 14 2 23 15 15 22 -2 2 -10 -2 -16
-10z"/>
<path d="M3028 3585 c-245 -46 -484 -163 -620 -302 l-58 -58 80 -64 c44 -35
77 -67 75 -71 -2 -4 4 -7 13 -7 9 0 50 31 90 69 112 106 237 178 407 236 173
59 379 86 495 64 30 -6 56 -10 57 -9 6 6 -145 121 -175 134 -51 23 -262 27
-364 8z"/>
<path d="M3245 3435 c-385 -60 -708 -278 -808 -544 -13 -34 -25 -59 -28 -56
-3 2 -5 -55 -5 -128 1 -117 4 -137 23 -174 29 -53 84 -98 148 -120 53 -19 199
-22 535 -13 130 4 161 2 192 -12 106 -48 101 -187 -11 -298 -65 -65 -142 -107
-267 -149 -192 -64 -355 -65 -545 -5 -12 4 -27 -23 -66 -125 l-50 -130 26 -10
c67 -26 126 -35 241 -35 146 0 234 14 385 61 402 128 648 389 650 688 0 115
-20 170 -82 225 -75 66 -124 76 -348 71 -417 -9 -446 -8 -487 17 -79 49 -76
175 8 275 64 76 199 151 339 188 87 23 256 30 356 16 l56 -8 45 123 c25 68 43
126 39 130 -10 12 -132 28 -201 27 -36 -1 -101 -7 -145 -14z"/>
<path d="M2210 3229 c0 -5 5 -7 10 -4 6 3 10 8 10 11 0 2 -4 4 -10 4 -5 0 -10
-5 -10 -11z"/>
<path d="M2230 3084 c0 -8 5 -12 10 -9 6 4 8 11 5 16 -9 14 -15 11 -15 -7z"/>
<path d="M2950 2834 c-8 -1 -68 -6 -134 -9 l-118 -7 5 -35 c14 -85 75 -108
262 -99 384 18 399 18 470 3 39 -8 71 -14 72 -13 4 3 -118 97 -151 117 -52 30
-160 49 -281 48 -60 -1 -117 -3 -125 -5z"/>
<path d="M2296 2565 c4 -8 1 -15 -5 -15 -6 0 -11 -7 -11 -16 0 -8 4 -13 8 -10
9 6 10 4 16 -69 2 -27 2 -45 -1 -38 -2 7 -12 10 -21 7 -15 -5 -15 -4 -1 5 14
9 16 26 10 74 -2 18 -18 4 -34 -33 -20 -48 -21 -53 -4 -44 6 4 3 -2 -7 -14
-20 -24 -36 -31 -17 -9 6 8 8 17 4 20 -9 9 -34 -13 -27 -24 3 -5 -1 -9 -8 -9
-10 0 -9 -3 2 -11 12 -9 12 -10 -3 -5 -21 7 -60 -11 -52 -24 3 -5 0 -12 -6
-16 -8 -4 -9 -3 -5 4 4 7 3 12 -2 12 -16 0 -22 -13 -11 -26 14 -17 50 3 42 23
-3 7 0 13 7 13 6 0 9 -4 5 -9 -3 -5 -1 -12 5 -16 5 -3 10 -1 10 4 0 6 4 11 9
11 12 0 8 -27 -6 -41 -8 -8 -13 -8 -17 0 -4 6 -12 11 -17 11 -5 0 -2 -11 7
-25 16 -25 42 -36 28 -12 -4 7 -3 9 2 4 5 -5 9 -14 9 -20 0 -7 5 -12 10 -12 6
0 15 -4 22 -8 7 -4 16 0 22 10 6 10 11 13 11 8 0 -6 -5 -16 -11 -22 -6 -6 -8
-16 -5 -21 12 -19 49 -8 81 23 17 17 38 34 48 38 9 3 17 12 17 18 0 8 -4 8
-13 1 -7 -6 -22 -9 -32 -8 -29 5 -38 -4 -23 -22 10 -14 10 -15 -2 -5 -17 16
-23 50 -10 58 6 4 7 11 4 17 -5 7 -2 8 5 3 9 -5 10 -10 2 -18 -17 -17 -13 -22
19 -23 l30 -2 -20 26 c-14 17 -17 29 -10 37 5 6 6 16 2 20 -4 5 -2 5 5 1 16
-9 28 12 28 49 0 17 4 35 8 42 4 6 1 14 -5 16 -8 3 -6 6 5 6 17 1 23 -14 9
-23 -5 -3 -8 -22 -7 -42 2 -28 -4 -42 -22 -58 -22 -19 -23 -23 -8 -43 19 -26
48 -21 64 13 9 20 8 24 -7 25 -10 0 -12 3 -4 6 6 2 9 10 5 16 -4 7 1 6 10 -2
18 -14 17 -17 21 66 1 9 -5 18 -13 21 -9 3 -11 0 -6 -8 5 -9 4 -11 -4 -6 -6 4
-9 11 -6 15 7 12 -32 44 -44 36 -16 -9 -58 27 -55 48 1 11 -4 17 -17 17 -12 0
-16 -5 -13 -15z m69 -127 c-4 -18 -9 -35 -12 -38 -3 -3 -3 5 0 17 3 13 1 26
-5 29 -6 4 -5 10 3 15 20 12 20 12 14 -23z m-30 2 c3 -5 1 -10 -4 -10 -6 0
-11 5 -11 10 0 6 2 10 4 10 3 0 8 -4 11 -10z m-60 -40 c-3 -5 -12 -10 -18 -10
-7 0 -6 4 3 10 19 12 23 12 15 0z m22 -19 c0 -11 -5 -18 -9 -15 -4 3 -5 11 -1
19 7 21 12 19 10 -4z m28 9 c-3 -5 -1 -10 5 -10 6 0 8 -5 4 -11 -4 -8 -9 -7
-15 2 -7 12 -3 29 7 29 3 0 2 -4 -1 -10z m72 -45 c0 -8 -4 -12 -9 -9 -4 3 -8
9 -8 15 0 5 4 9 8 9 5 0 9 -7 9 -15z m-101 -24 c-2 -14 -5 -28 -5 -30 -3 -13
-28 23 -26 37 4 21 2 19 20 19 11 0 14 -8 11 -26z m-38 -36 c-3 -3 -9 2 -12
12 -6 14 -5 15 5 6 7 -7 10 -15 7 -18z m38 -29 c0 -14 -3 -23 -7 -20 -6 3 -6
22 0 42 3 10 7 -2 7 -22z"/>
<path d="M2274 2326 c1 -8 5 -18 8 -22 4 -3 5 1 4 10 -1 8 -5 18 -8 22 -4 3
-5 -1 -4 -10z"/>
<path d="M2405 2530 c3 -5 8 -10 11 -10 2 0 4 5 4 10 0 6 -5 10 -11 10 -5 0
-7 -4 -4 -10z"/>
<path d="M3177 2355 c-22 -62 -60 -109 -131 -159 -113 -79 -262 -131 -422
-147 -85 -9 -118 -7 -196 6 -51 10 -101 18 -110 19 -10 1 -21 5 -24 9 -13 13
-26 7 -15 -7 9 -10 7 -17 -6 -27 -17 -13 -17 -13 -3 6 14 19 14 19 -3 6 -14
-11 -15 -16 -5 -29 7 -9 8 -13 3 -10 -6 4 -17 -2 -24 -14 -10 -16 -10 -19 1
-12 8 4 7 0 -3 -12 -22 -26 -32 -57 -16 -49 6 4 4 0 -5 -7 -9 -8 -19 -26 -22
-41 -2 -15 -7 -31 -10 -36 -4 -5 5 -22 19 -38 16 -19 25 -23 25 -13 0 9 6 4
13 -10 8 -15 21 -25 34 -24 15 0 19 -4 15 -14 -3 -10 -1 -13 6 -8 7 4 12 2 12
-4 0 -12 24 -40 34 -40 3 0 5 6 3 13 -1 6 4 11 12 9 12 -3 12 0 1 12 -7 9 -9
16 -6 16 4 0 2 10 -4 23 -11 21 -10 21 4 3 9 -10 13 -23 10 -27 -3 -5 -3 -9 0
-9 3 0 10 10 17 21 9 17 8 20 -3 14 -7 -3 -6 0 4 7 9 8 24 38 34 68 9 30 21
59 25 65 14 14 11 47 -3 39 -6 -4 -8 -3 -5 3 6 9 -14 24 -35 27 -3 1 -9 4 -13
8 -4 4 -14 4 -23 1 -15 -4 -15 -3 -2 6 13 10 13 13 -4 26 -11 8 -25 15 -31 15
-7 0 -12 7 -12 15 0 8 2 15 4 15 2 0 34 -24 71 -53 77 -62 110 -80 172 -95
225 -54 534 14 707 155 46 38 103 139 103 183 0 76 -44 119 -137 134 l-41 6
-15 -45z m-880 -357 c-3 -8 -6 -5 -6 6 -1 11 2 17 5 13 3 -3 4 -12 1 -19z m38
-8 c3 -6 -1 -7 -9 -4 -18 7 -21 14 -7 14 6 0 13 -4 16 -10z m-25 -27 c0 -3 -6
-3 -14 0 -7 3 -20 0 -27 -6 -11 -10 -11 -9 0 5 11 15 41 15 41 1z m85 -1 c-3
-3 -11 0 -18 7 -9 10 -8 11 6 5 10 -3 15 -9 12 -12z m-5 -22 c0 -5 -5 -10 -11
-10 -5 0 -7 5 -4 10 3 6 8 10 11 10 2 0 4 -4 4 -10z m-25 -29 c3 -5 2 -12 -3
-15 -5 -3 -9 1 -9 9 0 17 3 19 12 6z m-92 -13 c-4 -7 -8 -19 -9 -26 -2 -8 -5
-17 -8 -20 -4 -3 -4 5 -2 19 2 13 5 27 5 32 1 4 6 7 12 7 6 0 7 -5 2 -12z m27
-12 c0 -3 -4 -8 -10 -11 -5 -3 -10 -1 -10 4 0 6 5 11 10 11 6 0 10 -2 10 -4z
m25 -13 c-2 -10 -4 -19 -4 -21 -1 -2 -6 0 -11 3 -8 5 -7 11 1 21 15 18 18 18
14 -3z m-100 -30 c-9 -8 -12 -19 -9 -25 4 -7 2 -8 -4 -4 -8 5 -9 13 -2 25 5
10 6 21 2 25 -3 4 1 4 11 1 15 -6 15 -9 2 -22z m165 15 c0 6 4 12 9 12 8 0 8
-8 2 -39 -2 -8 -31 22 -31 33 0 6 5 4 10 -4 6 -10 10 -11 10 -2z m-116 -39
c-8 -8 -11 -19 -7 -24 5 -4 2 -5 -5 -1 -7 4 -9 13 -5 19 8 12 9 18 12 40 1 8
4 8 11 -3 6 -10 4 -20 -6 -31z m53 1 c-1 -13 -5 -16 -11 -10 -6 6 -15 5 -25
-3 -14 -11 -14 -10 -2 5 7 10 17 15 22 12 5 -3 9 0 9 5 0 6 2 11 4 11 3 0 4
-9 3 -20z m0 -55 c0 -8 -4 -12 -9 -9 -5 3 -6 10 -3 15 9 13 12 11 12 -6z"/>
<path d="M2060 2316 c-13 -8 -106 -40 -207 -72 l-183 -59 0 -92 c0 -51 3 -93
6 -93 14 0 493 154 537 172 44 19 46 22 32 38 -8 9 -12 19 -9 22 3 3 0 9 -7
14 -8 4 -10 3 -5 -4 12 -20 -4 -13 -44 19 -22 18 -37 36 -33 42 3 6 2 7 -4 4
-6 -4 -19 0 -29 8 -23 18 -23 18 -54 1z"/>
<path d="M2176 2318 c3 -5 10 -6 15 -3 13 9 11 12 -6 12 -8 0 -12 -4 -9 -9z"/>
</g>
</svg>
